<mxfile host="Electron" modified="2023-08-29T20:26:51.431Z" agent="Mozilla/5.0 (X11; Linux x86_64) AppleWebKit/537.36 (KHTML, like Gecko) draw.io/21.6.8 Chrome/114.0.5735.289 Electron/25.5.0 Safari/537.36" etag="1UxWaBZl-q5RGjZ_Jgch" version="21.6.8" type="device">
  <diagram name="Page-1" id="4r03dHbfyTE6OyfJmPza">
    <mxGraphModel dx="2210" dy="1287" grid="0" gridSize="10" guides="1" tooltips="1" connect="1" arrows="1" fold="1" page="0" pageScale="1" pageWidth="850" pageHeight="1100" math="0" shadow="0">
      <root>
        <mxCell id="0" />
        <mxCell id="1" parent="0" />
        <mxCell id="gCn5ciw7eVpJCUnQUsFL-1" style="edgeStyle=none;rounded=0;orthogonalLoop=1;jettySize=auto;html=1;exitX=1;exitY=0.3333333333333333;exitDx=0;exitDy=0;exitPerimeter=0;entryX=1;entryY=0.5;entryDx=0;entryDy=0;fontSize=12;startSize=8;endSize=8;endArrow=none;endFill=0;" parent="1" source="ze89FVDKxorHZtrna_4w-5" target="ze89FVDKxorHZtrna_4w-45" edge="1">
          <mxGeometry relative="1" as="geometry">
            <Array as="points">
              <mxPoint x="1360" y="-31" />
              <mxPoint x="1360" y="630" />
            </Array>
          </mxGeometry>
        </mxCell>
        <mxCell id="ze89FVDKxorHZtrna_4w-5" value="Administrador" style="shape=umlActor;verticalLabelPosition=bottom;verticalAlign=top;html=1;outlineConnect=0;fontSize=16;" parent="1" vertex="1">
          <mxGeometry x="1166" y="-91" width="102" height="179.5" as="geometry" />
        </mxCell>
        <mxCell id="ze89FVDKxorHZtrna_4w-45" value="Recuperar contraseña" style="ellipse;whiteSpace=wrap;html=1;fontSize=16;" parent="1" vertex="1">
          <mxGeometry x="1114" y="562" width="206" height="135" as="geometry" />
        </mxCell>
        <mxCell id="EULT1-mNIWhbA2pyp3R4-5" style="edgeStyle=none;curved=1;rounded=0;orthogonalLoop=1;jettySize=auto;html=1;exitX=0.996;exitY=0.43;exitDx=0;exitDy=0;entryX=0;entryY=0.3333333333333333;entryDx=0;entryDy=0;entryPerimeter=0;fontSize=12;startSize=8;endSize=8;endArrow=none;endFill=0;exitPerimeter=0;" parent="1" source="yj0ga2Fl7RwOYOmrJsbQ-1" target="ze89FVDKxorHZtrna_4w-5" edge="1">
          <mxGeometry relative="1" as="geometry">
            <mxPoint x="737" y="461.0833333333335" as="targetPoint" />
            <mxPoint x="523.0000000000018" y="-29.500000000000227" as="sourcePoint" />
          </mxGeometry>
        </mxCell>
        <mxCell id="ze89FVDKxorHZtrna_4w-52" value="Recibir solicitudes de reserva" style="ellipse;whiteSpace=wrap;html=1;fontSize=16;" parent="1" vertex="1">
          <mxGeometry x="-98" y="-91" width="206" height="135" as="geometry" />
        </mxCell>
        <mxCell id="ze89FVDKxorHZtrna_4w-53" value="Notificar usuario" style="ellipse;whiteSpace=wrap;html=1;fontSize=16;" parent="1" vertex="1">
          <mxGeometry x="-526" y="562" width="206" height="135" as="geometry" />
        </mxCell>
        <mxCell id="ze89FVDKxorHZtrna_4w-54" value="Responder solicitud" style="ellipse;whiteSpace=wrap;html=1;fontSize=16;" parent="1" vertex="1">
          <mxGeometry x="-526" y="229" width="206" height="135" as="geometry" />
        </mxCell>
        <mxCell id="jYC-oOUQRNTP8EpMJbl4-6" style="edgeStyle=none;curved=1;rounded=0;orthogonalLoop=1;jettySize=auto;html=1;exitX=1;exitY=0.3333333333333333;exitDx=0;exitDy=0;exitPerimeter=0;entryX=0;entryY=0.5;entryDx=0;entryDy=0;fontSize=12;startSize=8;endSize=8;endArrow=none;endFill=0;" parent="1" source="jYC-oOUQRNTP8EpMJbl4-2" target="jYC-oOUQRNTP8EpMJbl4-4" edge="1">
          <mxGeometry relative="1" as="geometry" />
        </mxCell>
        <mxCell id="jYC-oOUQRNTP8EpMJbl4-2" value="Invitado" style="shape=umlActor;verticalLabelPosition=bottom;verticalAlign=top;html=1;outlineConnect=0;fontSize=16;" parent="1" vertex="1">
          <mxGeometry x="-480" y="842" width="102" height="179.5" as="geometry" />
        </mxCell>
        <mxCell id="jYC-oOUQRNTP8EpMJbl4-4" value="Leer QR" style="ellipse;whiteSpace=wrap;html=1;fontSize=16;" parent="1" vertex="1">
          <mxGeometry x="-98" y="836" width="206" height="135" as="geometry" />
        </mxCell>
        <mxCell id="jYC-oOUQRNTP8EpMJbl4-14" value="&lt;font style=&quot;font-size: 19px;&quot;&gt;&amp;lt;&amp;lt;include&amp;gt;&amp;gt;&lt;/font&gt;" style="endArrow=open;startArrow=none;endFill=0;startFill=0;endSize=8;html=1;verticalAlign=bottom;dashed=1;labelBackgroundColor=none;rounded=0;fontSize=12;entryX=0;entryY=0.5;entryDx=0;entryDy=0;" parent="1" source="ze89FVDKxorHZtrna_4w-54" target="ze89FVDKxorHZtrna_4w-52" edge="1">
          <mxGeometry width="160" relative="1" as="geometry">
            <mxPoint x="-321" y="305" as="sourcePoint" />
            <mxPoint x="-109" y="305" as="targetPoint" />
            <Array as="points">
              <mxPoint x="-423" y="-23" />
            </Array>
          </mxGeometry>
        </mxCell>
        <mxCell id="24uOFaUmsio1ot4KZlxF-3" value="Crear usuario" style="ellipse;whiteSpace=wrap;html=1;fontSize=16;" parent="1" vertex="1">
          <mxGeometry x="-93" y="562" width="206" height="135" as="geometry" />
        </mxCell>
        <mxCell id="24uOFaUmsio1ot4KZlxF-10" value="&lt;font style=&quot;font-size: 20px;&quot;&gt;&amp;lt;&amp;lt;extends&amp;gt;&amp;gt;&lt;/font&gt;" style="endArrow=open;startArrow=none;endFill=0;startFill=0;endSize=8;html=1;verticalAlign=bottom;dashed=1;labelBackgroundColor=none;rounded=0;fontSize=12;curved=1;entryX=0;entryY=1;entryDx=0;entryDy=0;exitX=1;exitY=0;exitDx=0;exitDy=0;" parent="1" source="24uOFaUmsio1ot4KZlxF-3" target="yj0ga2Fl7RwOYOmrJsbQ-4" edge="1">
          <mxGeometry width="160" relative="1" as="geometry">
            <mxPoint x="316.99999999999864" y="611.7399999999998" as="sourcePoint" />
            <mxPoint x="-270" y="-80" as="targetPoint" />
          </mxGeometry>
        </mxCell>
        <mxCell id="24uOFaUmsio1ot4KZlxF-11" value="Actualizar usuario" style="ellipse;whiteSpace=wrap;html=1;fontSize=16;" parent="1" vertex="1">
          <mxGeometry x="721" y="562" width="206" height="135" as="geometry" />
        </mxCell>
        <mxCell id="24uOFaUmsio1ot4KZlxF-12" value="Eliminar usuario" style="ellipse;whiteSpace=wrap;html=1;fontSize=16;" parent="1" vertex="1">
          <mxGeometry x="314" y="562" width="206" height="135" as="geometry" />
        </mxCell>
        <mxCell id="24uOFaUmsio1ot4KZlxF-14" value="&lt;font style=&quot;font-size: 20px;&quot;&gt;&amp;lt;&amp;lt;extends&amp;gt;&amp;gt;&lt;/font&gt;" style="endArrow=open;startArrow=none;endFill=0;startFill=0;endSize=8;html=1;verticalAlign=bottom;dashed=1;labelBackgroundColor=none;rounded=0;fontSize=12;curved=1;exitX=0.5;exitY=0;exitDx=0;exitDy=0;entryX=0.5;entryY=1;entryDx=0;entryDy=0;" parent="1" source="24uOFaUmsio1ot4KZlxF-12" target="yj0ga2Fl7RwOYOmrJsbQ-4" edge="1">
          <mxGeometry width="160" relative="1" as="geometry">
            <mxPoint x="347.0254955915766" y="659.3761348221651" as="sourcePoint" />
            <mxPoint x="116" y="622" as="targetPoint" />
          </mxGeometry>
        </mxCell>
        <mxCell id="24uOFaUmsio1ot4KZlxF-15" value="&lt;font style=&quot;font-size: 20px;&quot;&gt;&amp;lt;&amp;lt;extends&amp;gt;&amp;gt;&lt;/font&gt;" style="endArrow=open;startArrow=none;endFill=0;startFill=0;endSize=8;html=1;verticalAlign=bottom;dashed=1;labelBackgroundColor=none;rounded=0;fontSize=12;curved=1;entryX=1;entryY=1;entryDx=0;entryDy=0;exitX=0;exitY=0;exitDx=0;exitDy=0;" parent="1" source="24uOFaUmsio1ot4KZlxF-11" target="yj0ga2Fl7RwOYOmrJsbQ-4" edge="1">
          <mxGeometry width="160" relative="1" as="geometry">
            <mxPoint x="420" y="679.2399999999998" as="sourcePoint" />
            <mxPoint x="126" y="632" as="targetPoint" />
          </mxGeometry>
        </mxCell>
        <mxCell id="yj0ga2Fl7RwOYOmrJsbQ-1" value="Iniciar sesión" style="ellipse;whiteSpace=wrap;html=1;fontSize=16;" parent="1" vertex="1">
          <mxGeometry x="314" y="-91" width="206" height="135" as="geometry" />
        </mxCell>
        <mxCell id="yj0ga2Fl7RwOYOmrJsbQ-3" value="&lt;font style=&quot;font-size: 19px;&quot;&gt;&amp;lt;&amp;lt;extends&amp;gt;&amp;gt;&lt;/font&gt;" style="endArrow=open;startArrow=none;endFill=0;startFill=0;endSize=8;html=1;verticalAlign=bottom;dashed=1;labelBackgroundColor=none;rounded=0;fontSize=12;curved=1;exitX=1;exitY=0.5;exitDx=0;exitDy=0;entryX=0;entryY=0.5;entryDx=0;entryDy=0;" parent="1" source="ze89FVDKxorHZtrna_4w-52" target="yj0ga2Fl7RwOYOmrJsbQ-1" edge="1">
          <mxGeometry width="160" relative="1" as="geometry">
            <mxPoint x="430" y="537" as="sourcePoint" />
            <mxPoint x="430" y="357.0000000000002" as="targetPoint" />
          </mxGeometry>
        </mxCell>
        <mxCell id="yj0ga2Fl7RwOYOmrJsbQ-4" value="Gestión de usuarios" style="ellipse;whiteSpace=wrap;html=1;fontSize=16;" parent="1" vertex="1">
          <mxGeometry x="314" y="229" width="206" height="135" as="geometry" />
        </mxCell>
        <mxCell id="yj0ga2Fl7RwOYOmrJsbQ-5" value="&lt;font style=&quot;font-size: 19px;&quot;&gt;&amp;lt;&amp;lt;extends&amp;gt;&amp;gt;&lt;/font&gt;" style="endArrow=open;startArrow=none;endFill=0;startFill=0;endSize=8;html=1;verticalAlign=bottom;dashed=1;labelBackgroundColor=none;rounded=0;fontSize=12;curved=1;entryX=0.5;entryY=1;entryDx=0;entryDy=0;exitX=0.5;exitY=0;exitDx=0;exitDy=0;" parent="1" source="yj0ga2Fl7RwOYOmrJsbQ-4" target="yj0ga2Fl7RwOYOmrJsbQ-1" edge="1">
          <mxGeometry width="160" relative="1" as="geometry">
            <mxPoint x="95" y="242" as="sourcePoint" />
            <mxPoint x="354" y="34" as="targetPoint" />
          </mxGeometry>
        </mxCell>
        <mxCell id="yj0ga2Fl7RwOYOmrJsbQ-6" value="&lt;font style=&quot;font-size: 19px;&quot;&gt;&amp;lt;&amp;lt;extends&amp;gt;&amp;gt;&lt;/font&gt;" style="endArrow=open;startArrow=none;endFill=0;startFill=0;endSize=8;html=1;verticalAlign=bottom;dashed=1;labelBackgroundColor=none;rounded=0;fontSize=12;curved=1;entryX=0.5;entryY=1;entryDx=0;entryDy=0;exitX=0.5;exitY=0;exitDx=0;exitDy=0;" parent="1" source="ze89FVDKxorHZtrna_4w-53" target="ze89FVDKxorHZtrna_4w-54" edge="1">
          <mxGeometry width="160" relative="1" as="geometry">
            <mxPoint x="-310" y="307" as="sourcePoint" />
            <mxPoint x="-61" y="307" as="targetPoint" />
          </mxGeometry>
        </mxCell>
        <mxCell id="yj0ga2Fl7RwOYOmrJsbQ-7" value="Completar formulario" style="ellipse;whiteSpace=wrap;html=1;fontSize=16;" parent="1" vertex="1">
          <mxGeometry x="314" y="836" width="206" height="135" as="geometry" />
        </mxCell>
        <mxCell id="yj0ga2Fl7RwOYOmrJsbQ-10" value="&lt;font style=&quot;font-size: 19px;&quot;&gt;&amp;lt;&amp;lt;include&amp;gt;&amp;gt;&lt;/font&gt;" style="endArrow=open;startArrow=none;endFill=0;startFill=0;endSize=8;html=1;verticalAlign=bottom;dashed=1;labelBackgroundColor=none;rounded=0;fontSize=12;curved=1;entryX=1;entryY=0.5;entryDx=0;entryDy=0;exitX=0;exitY=0.5;exitDx=0;exitDy=0;" parent="1" source="yj0ga2Fl7RwOYOmrJsbQ-7" target="jYC-oOUQRNTP8EpMJbl4-4" edge="1">
          <mxGeometry width="160" relative="1" as="geometry">
            <mxPoint x="-314" y="107" as="sourcePoint" />
            <mxPoint x="-65" y="107" as="targetPoint" />
          </mxGeometry>
        </mxCell>
        <mxCell id="yj0ga2Fl7RwOYOmrJsbQ-11" value="&lt;font style=&quot;font-size: 19px;&quot;&gt;&amp;lt;&amp;lt;include&amp;gt;&amp;gt;&lt;/font&gt;" style="endArrow=open;startArrow=none;endFill=0;startFill=0;endSize=8;html=1;verticalAlign=bottom;dashed=1;labelBackgroundColor=none;rounded=0;fontSize=12;curved=1;entryX=1;entryY=0.5;entryDx=0;entryDy=0;exitX=0;exitY=0.5;exitDx=0;exitDy=0;" parent="1" source="yj0ga2Fl7RwOYOmrJsbQ-12" target="yj0ga2Fl7RwOYOmrJsbQ-7" edge="1">
          <mxGeometry width="160" relative="1" as="geometry">
            <mxPoint x="433.0000000000059" y="1247.5" as="sourcePoint" />
            <mxPoint x="141" y="914" as="targetPoint" />
          </mxGeometry>
        </mxCell>
        <mxCell id="yj0ga2Fl7RwOYOmrJsbQ-12" value="Recibir Lugar de estacionamiento" style="ellipse;whiteSpace=wrap;html=1;fontSize=16;" parent="1" vertex="1">
          <mxGeometry x="721" y="836" width="206" height="135" as="geometry" />
        </mxCell>
        <mxCell id="0DlQKKn1yCkRTr6j4DBD-1" value="Visualizar de registros" style="ellipse;whiteSpace=wrap;html=1;fontSize=16;" parent="1" vertex="1">
          <mxGeometry x="723" y="229" width="206" height="135" as="geometry" />
        </mxCell>
        <mxCell id="0DlQKKn1yCkRTr6j4DBD-2" value="&lt;font style=&quot;font-size: 20px;&quot;&gt;&amp;lt;&amp;lt;extends&amp;gt;&amp;gt;&lt;/font&gt;" style="endArrow=open;startArrow=none;endFill=0;startFill=0;endSize=8;html=1;verticalAlign=bottom;dashed=1;labelBackgroundColor=none;rounded=0;fontSize=12;curved=1;entryX=1;entryY=1;entryDx=0;entryDy=0;exitX=0;exitY=0;exitDx=0;exitDy=0;" parent="1" source="0DlQKKn1yCkRTr6j4DBD-1" target="yj0ga2Fl7RwOYOmrJsbQ-1" edge="1">
          <mxGeometry width="160" relative="1" as="geometry">
            <mxPoint x="761" y="592" as="sourcePoint" />
            <mxPoint x="500" y="354" as="targetPoint" />
          </mxGeometry>
        </mxCell>
      </root>
    </mxGraphModel>
  </diagram>
</mxfile>
